<svg xmlns="http://www.w3.org/2000/svg" xml:space="preserve" width="16" height="16"><g transform="translate(16 4)"><path d="M0 2V0h-16v2z" fill="#000285"/><path d="M0 8V6h-16v2z" fill="#000285"/><path d="M0 5V3h-16v2z" fill="#000285"/><path d="M-10-4h-2v16h2zm3 0h-2v16h2z" fill="#000285"/><path d="M-14-2v12h12V-2Z" fill="#000285"/><path d="M-4-4h-2v16h2z" fill="#000285"/><path d="M-3-1h-10V9h10z" fill="#3f51b5"/><path d="M-9 1h-2v1h2zm2 0h1v5h2v1h-3zm-2 5v1h-2V6Z" fill="#fff"/><path d="M-11 2h-1v4h1z" fill="#fff"/><path d="M-8 5v1h-1V5Z" fill="#fff"/><path d="M-8 2v1h-1V2Z" fill="#fff"/></g></svg>
